<?xml version="1.0" encoding="utf-8"?>
<!-- Generator: Adobe Illustrator 15.0.0, SVG Export Plug-In . SVG Version: 6.00 Build 0)  -->
<!DOCTYPE svg PUBLIC "-//W3C//DTD SVG 1.1//EN" "http://www.w3.org/Graphics/SVG/1.1/DTD/svg11.dtd">
<svg version="1.1" id="Layer_1" xmlns="http://www.w3.org/2000/svg" xmlns:xlink="http://www.w3.org/1999/xlink" x="0px" y="0px"
	 width="400px" height="400px" viewBox="0 0 400 400" enable-background="new 0 0 400 400" xml:space="preserve">
<path fill="#FDB813" d="M200,2.996C91.372,2.996,2.996,91.372,2.996,200c0,108.628,88.375,197.004,197.004,197.004
	c108.628,0,197.004-88.376,197.004-197.004C397.004,91.372,308.628,2.996,200,2.996z M200,390.834
	C94.774,390.834,9.166,305.227,9.166,200C9.166,94.774,94.774,9.166,200,9.166c105.227,0,190.834,85.608,190.834,190.834
	C390.834,305.227,305.227,390.834,200,390.834z"/>
<g>
	<path fill="#FDB813" d="M141.368,179.822c-4.135-4.938-9.773-7.937-16.128-8.456l-19.471-0.022c-1.627,0-2.859,1.228-2.867,2.861
		l-0.055,51.406c0,1.604,1.215,2.838,2.863,2.866l19.548,0.017c0.057,0,0.112-0.004,0.169-0.008
		c6.104-0.493,11.748-3.482,15.894-8.409c4.624-5.493,6.888-12.896,6.214-19.932C148.224,192.731,145.976,185.324,141.368,179.822z
		 M108.627,177.076l16.421,0.01c10.256,0.925,17.781,11.064,16.775,22.605c-0.01,0.12-0.01,0.393,0,0.513
		c0.979,11.541-6.568,21.668-16.639,22.564l-16.606-0.021L108.627,177.076z"/>
	<path fill="#FDB813" d="M201.565,171.448c-14.021,0-25.439,12.801-25.457,28.538c-0.008,7.601,2.618,14.759,7.399,20.151
		c4.818,5.437,11.217,8.434,18.022,8.438h0.028c14.022,0,25.441-12.804,25.449-28.537
		C227.023,184.29,215.621,171.464,201.565,171.448z M201.535,222.85c-10.873-0.017-19.709-10.271-19.697-22.86
		c0.012-12.579,8.863-22.814,19.728-22.814v-1.558c0.002,0,0.005,0,0.007,0l0.012,1.558c5.229,0.006,10.148,2.348,13.854,6.595
		c3.775,4.325,5.852,10.101,5.844,16.265C221.265,212.615,212.42,222.85,201.535,222.85z"/>
	<path fill="#FDB813" d="M295.074,171.549l-40.494-0.044h-0.004c-0.554,0-1.084,0.218-1.475,0.608
		c-0.391,0.391-0.61,0.922-0.61,1.477v1.558c0,1.148,0.928,2.083,2.08,2.085l17.462,0.02l-0.053,49.319
		c0,1.152,0.933,2.085,2.085,2.085h1.556c1.152,0,2.085-0.933,2.085-2.085l0.053-49.314l17.307,0.02h0.005
		c0.554,0,1.083-0.22,1.474-0.608c0.391-0.391,0.611-0.922,0.611-1.477v-1.558C297.155,172.484,296.227,171.551,295.074,171.549z"/>
</g>
</svg>
