<?xml version="1.0" encoding="utf-8"?>
<!-- Generator: Adobe Illustrator 15.0.0, SVG Export Plug-In . SVG Version: 6.00 Build 0)  -->
<!DOCTYPE svg PUBLIC "-//W3C//DTD SVG 1.1//EN" "http://www.w3.org/Graphics/SVG/1.1/DTD/svg11.dtd">
<svg version="1.1" id="Layer_1" xmlns="http://www.w3.org/2000/svg" xmlns:xlink="http://www.w3.org/1999/xlink" x="0px" y="0px"
	 width="40px" height="40px" viewBox="0 0 40 40" enable-background="new 0 0 40 40" xml:space="preserve">
<g>
	<circle fill="none" stroke="#FFFFFF" stroke-linecap="round" stroke-linejoin="round" cx="20.501" cy="-41.75" r="19.259"/>
</g>
<g>
	<circle fill="none" stroke="#FFFFFF" stroke-linecap="round" stroke-linejoin="round" cx="20.501" cy="-41.75" r="19.259"/>
</g>
<g>
	<circle fill="none" stroke="#FFFFFF" stroke-linecap="round" stroke-linejoin="round" cx="96.626" cy="-42" r="19.259"/>
</g>
<g>
	<circle fill="none" stroke="#FFFFFF" stroke-linecap="round" stroke-linejoin="round" cx="20.001" cy="20" r="19.259"/>
</g>
<g>
	<circle fill="none" stroke="#FFFFFF" stroke-linecap="round" stroke-linejoin="round" cx="96.501" cy="20.125" r="19.259"/>
</g>
<g>
	<path fill="none" stroke="#FFFFFF" stroke-linecap="round" stroke-linejoin="round" stroke-miterlimit="10" d="M29.226-38.688
		c0,2.938-2.381,5.316-5.316,5.316h-6.624c-2.937,0-5.318-2.379-5.318-5.316v-6.625c0-2.936,2.381-5.317,5.318-5.317h6.624
		c2.936,0,5.316,2.382,5.316,5.317V-38.688z"/>
	<path fill="none" stroke="#FFFFFF" stroke-linecap="round" stroke-linejoin="round" stroke-miterlimit="10" d="M20.846-45.964
		c-2.208,0-3.997,1.789-3.997,3.996c0,2.207,1.789,3.995,3.997,3.995s3.998-1.788,3.998-3.995
		C24.844-44.175,23.054-45.964,20.846-45.964z"/>
	
		<circle fill="none" stroke="#FFFFFF" stroke-linecap="round" stroke-linejoin="round" stroke-miterlimit="10" cx="25.417" cy="-46.955" r="1.004"/>
</g>
<g>
	<g>
		<path fill="none" stroke="#FFFFFF" stroke-linecap="round" stroke-linejoin="round" stroke-miterlimit="10" d="M99.719-48.628
			h2.242v-3.526h-2.787l0,0h-0.576c0,0-2.113-0.053-3.462,1.699c0,0-0.917,0.865-0.931,3.399h-0.002v2.645H90.88v3.745h3.323v9.676
			h3.835v-9.676h3.297l0.46-3.745h-3.757v-2.645h-0.002C98.045-47.352,98.178-48.655,99.719-48.628z"/>
	</g>
</g>
<g>
	<path fill="none" stroke="#FFFFFF" stroke-linecap="round" stroke-linejoin="round" stroke-miterlimit="10" d="M17.745,27.94
		c6.571,0,10.163-5.443,10.163-10.164c0-0.153-0.002-0.309-0.011-0.461c0.698-0.504,1.305-1.135,1.781-1.85
		c-0.639,0.284-1.329,0.476-2.051,0.562c0.737-0.443,1.304-1.143,1.572-1.977c-0.689,0.409-1.456,0.708-2.27,0.868
		c-0.653-0.695-1.578-1.129-2.607-1.129c-1.973,0-3.571,1.601-3.571,3.572c0,0.279,0.032,0.55,0.092,0.813
		c-2.968-0.15-5.603-1.571-7.363-3.731c-0.307,0.527-0.483,1.14-0.483,1.794c0,1.238,0.63,2.332,1.591,2.976
		c-0.586-0.021-1.138-0.181-1.619-0.448c0,0.017,0,0.03,0,0.046c0,1.73,1.231,3.174,2.864,3.502
		c-0.299,0.081-0.614,0.125-0.94,0.125c-0.23,0-0.453-0.024-0.671-0.065c0.456,1.421,1.774,2.453,3.336,2.481
		c-1.222,0.959-2.762,1.529-4.436,1.529c-0.288,0-0.571-0.016-0.852-0.05C13.851,27.351,15.727,27.94,17.745,27.94"/>
</g>
<g>
	<polyline fill="none" stroke="#FFFFFF" stroke-linecap="round" stroke-linejoin="round" stroke-miterlimit="10" points="
		87.662,14.024 97.028,21.583 106.273,13.88 	"/>
	
		<line fill="none" stroke="#FFFFFF" stroke-linecap="round" stroke-linejoin="round" stroke-miterlimit="10" x1="93.887" y1="19.151" x2="87.602" y2="26.773"/>
	
		<line fill="none" stroke="#FFFFFF" stroke-linecap="round" stroke-linejoin="round" stroke-miterlimit="10" x1="100.172" y1="19.029" x2="106.375" y2="26.855"/>
	<path fill="none" stroke="#FFFFFF" stroke-linecap="round" stroke-linejoin="round" stroke-miterlimit="10" d="M107.125,24.866
		c0,1.523-1.062,2.759-2.37,2.759H89.12c-1.309,0-2.37-1.235-2.37-2.759v-9.079c0-1.523,1.062-2.759,2.37-2.759h15.635
		c1.309,0,2.37,1.235,2.37,2.759V24.866z"/>
</g>
<g>
	<path fill="none" stroke="#FCB717" stroke-width="1.2542" stroke-linecap="round" stroke-linejoin="round" d="M23.543,116.446
		c13.341,0,24.153-10.813,24.153-24.153c0-13.341-10.812-24.155-24.153-24.155c-13.343,0-24.155,10.814-24.155,24.155
		C-0.612,105.633,10.2,116.446,23.543,116.446z"/>
</g>
<g>
	
		<line fill="none" stroke="#FCB717" stroke-width="1.3106" stroke-linecap="round" stroke-linejoin="round" x1="9.667" y1="92.728" x2="37.417" y2="92.728"/>
	
		<line fill="none" stroke="#FCB717" stroke-width="1.3106" stroke-linecap="round" stroke-linejoin="round" x1="9.667" y1="82.5" x2="37.417" y2="82.5"/>
	
		<line fill="none" stroke="#FCB717" stroke-width="1.3106" stroke-linecap="round" stroke-linejoin="round" x1="9.667" y1="102.084" x2="37.417" y2="102.084"/>
</g>
<g>
	<path fill="none" stroke="#FCB717" stroke-width="1.2542" stroke-linecap="round" stroke-linejoin="round" d="M101.001,116.237
		c13.341,0,24.153-10.813,24.153-24.153c0-13.341-10.812-24.155-24.153-24.155c-13.343,0-24.155,10.814-24.155,24.155
		C76.846,105.424,87.658,116.237,101.001,116.237z"/>
</g>
<line fill="none" stroke="#FCB717" stroke-width="1.3106" stroke-linecap="round" stroke-linejoin="round" x1="91.188" y1="102.33" x2="110.812" y2="82.707"/>
<line fill="none" stroke="#FCB717" stroke-width="1.3106" stroke-linecap="round" stroke-linejoin="round" x1="91.188" y1="82.707" x2="110.812" y2="102.33"/>
</svg>
