<?xml version="1.0" encoding="utf-8"?>
<!-- Generator: Adobe Illustrator 15.0.0, SVG Export Plug-In . SVG Version: 6.00 Build 0)  -->
<!DOCTYPE svg PUBLIC "-//W3C//DTD SVG 1.1//EN" "http://www.w3.org/Graphics/SVG/1.1/DTD/svg11.dtd">
<svg version="1.1" id="Layer_1" xmlns="http://www.w3.org/2000/svg" xmlns:xlink="http://www.w3.org/1999/xlink" x="0px" y="0px"
	 width="40px" height="40px" viewBox="0 0 40 40" enable-background="new 0 0 40 40" xml:space="preserve">
<g>
	<circle fill="none" stroke="#FFFFFF" stroke-linecap="round" stroke-linejoin="round" cx="20.001" cy="20" r="19.259"/>
</g>
<g>
	<circle fill="none" stroke="#FFFFFF" stroke-linecap="round" stroke-linejoin="round" cx="20.001" cy="20" r="19.259"/>
</g>
<g>
	<circle fill="none" stroke="#FFFFFF" stroke-linecap="round" stroke-linejoin="round" cx="96.126" cy="19.75" r="19.259"/>
</g>
<g>
	<circle fill="none" stroke="#FFFFFF" stroke-linecap="round" stroke-linejoin="round" cx="19.501" cy="81.75" r="19.259"/>
</g>
<g>
	<circle fill="none" stroke="#FFFFFF" stroke-linecap="round" stroke-linejoin="round" cx="96.001" cy="81.875" r="19.259"/>
</g>
<g>
	<path fill="none" stroke="#FFFFFF" stroke-linecap="round" stroke-linejoin="round" stroke-miterlimit="10" d="M28.726,23.062
		c0,2.938-2.381,5.316-5.316,5.316h-6.624c-2.937,0-5.318-2.379-5.318-5.316v-6.625c0-2.936,2.381-5.317,5.318-5.317h6.624
		c2.936,0,5.316,2.382,5.316,5.317V23.062z"/>
	<path fill="none" stroke="#FFFFFF" stroke-linecap="round" stroke-linejoin="round" stroke-miterlimit="10" d="M20.346,15.786
		c-2.208,0-3.997,1.789-3.997,3.996c0,2.207,1.789,3.995,3.997,3.995s3.998-1.788,3.998-3.995
		C24.344,17.575,22.554,15.786,20.346,15.786z"/>
	
		<circle fill="none" stroke="#FFFFFF" stroke-linecap="round" stroke-linejoin="round" stroke-miterlimit="10" cx="24.917" cy="14.795" r="1.004"/>
</g>
<g>
	<g>
		<path fill="none" stroke="#FFFFFF" stroke-linecap="round" stroke-linejoin="round" stroke-miterlimit="10" d="M99.219,13.122
			h2.242V9.595h-2.787l0,0h-0.576c0,0-2.113-0.053-3.462,1.699c0,0-0.917,0.865-0.931,3.399h-0.002v2.645H90.38v3.745h3.323v9.676
			h3.835v-9.676h3.297l0.46-3.745h-3.757v-2.645h-0.002C97.545,14.398,97.678,13.095,99.219,13.122z"/>
	</g>
</g>
<g>
	<path fill="none" stroke="#FFFFFF" stroke-linecap="round" stroke-linejoin="round" stroke-miterlimit="10" d="M17.245,89.69
		c6.571,0,10.163-5.443,10.163-10.164c0-0.153-0.002-0.309-0.011-0.461c0.698-0.504,1.305-1.135,1.781-1.85
		c-0.639,0.284-1.329,0.476-2.051,0.562c0.737-0.443,1.304-1.143,1.572-1.977c-0.689,0.409-1.456,0.708-2.27,0.868
		c-0.653-0.695-1.578-1.129-2.607-1.129c-1.973,0-3.571,1.601-3.571,3.572c0,0.279,0.032,0.55,0.092,0.813
		c-2.968-0.15-5.603-1.571-7.363-3.731c-0.307,0.527-0.483,1.14-0.483,1.794c0,1.238,0.63,2.332,1.591,2.976
		c-0.586-0.021-1.138-0.181-1.619-0.448c0,0.017,0,0.03,0,0.046c0,1.73,1.231,3.174,2.864,3.502
		c-0.299,0.081-0.614,0.125-0.94,0.125c-0.23,0-0.453-0.024-0.671-0.065c0.456,1.421,1.774,2.453,3.336,2.481
		c-1.222,0.959-2.762,1.529-4.436,1.529c-0.288,0-0.571-0.016-0.852-0.05C13.351,89.101,15.227,89.69,17.245,89.69"/>
</g>
<g>
	<polyline fill="none" stroke="#FFFFFF" stroke-linecap="round" stroke-linejoin="round" stroke-miterlimit="10" points="
		87.162,75.774 96.528,83.333 105.773,75.63 	"/>
	
		<line fill="none" stroke="#FFFFFF" stroke-linecap="round" stroke-linejoin="round" stroke-miterlimit="10" x1="93.387" y1="80.901" x2="87.102" y2="88.523"/>
	
		<line fill="none" stroke="#FFFFFF" stroke-linecap="round" stroke-linejoin="round" stroke-miterlimit="10" x1="99.672" y1="80.779" x2="105.875" y2="88.605"/>
	<path fill="none" stroke="#FFFFFF" stroke-linecap="round" stroke-linejoin="round" stroke-miterlimit="10" d="M106.625,86.616
		c0,1.523-1.062,2.759-2.37,2.759H88.62c-1.309,0-2.37-1.235-2.37-2.759v-9.079c0-1.523,1.062-2.759,2.37-2.759h15.635
		c1.309,0,2.37,1.235,2.37,2.759V86.616z"/>
</g>
<g>
	<path fill="none" stroke="#FCB717" stroke-width="1.2542" stroke-linecap="round" stroke-linejoin="round" d="M23.043,178.196
		c13.341,0,24.153-10.813,24.153-24.153c0-13.341-10.812-24.155-24.153-24.155c-13.343,0-24.155,10.814-24.155,24.155
		C-1.112,167.383,9.7,178.196,23.043,178.196z"/>
</g>
<g>
	
		<line fill="none" stroke="#FCB717" stroke-width="1.3106" stroke-linecap="round" stroke-linejoin="round" x1="9.167" y1="154.478" x2="36.917" y2="154.478"/>
	
		<line fill="none" stroke="#FCB717" stroke-width="1.3106" stroke-linecap="round" stroke-linejoin="round" x1="9.167" y1="144.25" x2="36.917" y2="144.25"/>
	
		<line fill="none" stroke="#FCB717" stroke-width="1.3106" stroke-linecap="round" stroke-linejoin="round" x1="9.167" y1="163.834" x2="36.917" y2="163.834"/>
</g>
<g>
	<path fill="none" stroke="#FCB717" stroke-width="1.2542" stroke-linecap="round" stroke-linejoin="round" d="M100.501,177.987
		c13.341,0,24.153-10.813,24.153-24.153c0-13.341-10.812-24.155-24.153-24.155c-13.343,0-24.155,10.814-24.155,24.155
		C76.346,167.174,87.158,177.987,100.501,177.987z"/>
</g>
<line fill="none" stroke="#FCB717" stroke-width="1.3106" stroke-linecap="round" stroke-linejoin="round" x1="90.688" y1="164.08" x2="110.312" y2="144.457"/>
<line fill="none" stroke="#FCB717" stroke-width="1.3106" stroke-linecap="round" stroke-linejoin="round" x1="90.688" y1="144.457" x2="110.312" y2="164.08"/>
</svg>
