<?xml version="1.0" encoding="utf-8"?>
<!-- Generator: Adobe Illustrator 15.0.0, SVG Export Plug-In . SVG Version: 6.00 Build 0)  -->
<!DOCTYPE svg PUBLIC "-//W3C//DTD SVG 1.1//EN" "http://www.w3.org/Graphics/SVG/1.1/DTD/svg11.dtd">
<svg version="1.1" id="Layer_1" xmlns="http://www.w3.org/2000/svg" xmlns:xlink="http://www.w3.org/1999/xlink" x="0px" y="0px"
	 width="40px" height="40px" viewBox="0 0 40 40" enable-background="new 0 0 40 40" xml:space="preserve">
<g>
	<defs>
		<rect id="SVGID_5_" x="-76.125" y="0.25" width="40" height="40"/>
	</defs>
	<clipPath id="SVGID_1_">
		<use xlink:href="#SVGID_5_"  overflow="visible"/>
	</clipPath>
	
		<circle clip-path="url(#SVGID_1_)" fill="none" stroke="#FCB717" stroke-linecap="round" stroke-linejoin="round" cx="-56.124" cy="20.25" r="19.259"/>
</g>
<g>
	<defs>
		<rect id="SVGID_7_" x="-76.125" y="0.25" width="40" height="40"/>
	</defs>
	<clipPath id="SVGID_2_">
		<use xlink:href="#SVGID_7_"  overflow="visible"/>
	</clipPath>
	
		<circle clip-path="url(#SVGID_2_)" fill="none" stroke="#FCB717" stroke-linecap="round" stroke-linejoin="round" cx="-56.124" cy="20.25" r="19.259"/>
</g>
<g>
	<defs>
		<rect id="SVGID_9_" width="40" height="40"/>
	</defs>
	<clipPath id="SVGID_3_">
		<use xlink:href="#SVGID_9_"  overflow="visible"/>
	</clipPath>
	
		<circle clip-path="url(#SVGID_3_)" fill="none" stroke="#FCB717" stroke-linecap="round" stroke-linejoin="round" cx="20.001" cy="20" r="19.259"/>
</g>
<g>
	<defs>
		<rect id="SVGID_11_" x="-76.625" y="62" width="40" height="40"/>
	</defs>
	<clipPath id="SVGID_4_">
		<use xlink:href="#SVGID_11_"  overflow="visible"/>
	</clipPath>
	
		<circle clip-path="url(#SVGID_4_)" fill="none" stroke="#FCB717" stroke-linecap="round" stroke-linejoin="round" cx="-56.624" cy="82" r="19.259"/>
</g>
<g>
	<defs>
		<rect id="SVGID_13_" x="-0.125" y="62.125" width="40" height="40"/>
	</defs>
	<clipPath id="SVGID_6_">
		<use xlink:href="#SVGID_13_"  overflow="visible"/>
	</clipPath>
	
		<circle clip-path="url(#SVGID_6_)" fill="none" stroke="#FCB717" stroke-linecap="round" stroke-linejoin="round" cx="19.876" cy="82.125" r="19.259"/>
</g>
<g>
	<path fill="none" stroke="#FCB717" stroke-linecap="round" stroke-linejoin="round" stroke-miterlimit="10" d="M-47.399,23.312
		c0,2.938-2.381,5.316-5.316,5.316h-6.624c-2.937,0-5.318-2.379-5.318-5.316v-6.625c0-2.936,2.381-5.317,5.318-5.317h6.624
		c2.936,0,5.316,2.382,5.316,5.317V23.312z"/>
	<path fill="none" stroke="#FCB717" stroke-linecap="round" stroke-linejoin="round" stroke-miterlimit="10" d="M-55.779,16.036
		c-2.208,0-3.997,1.789-3.997,3.996c0,2.207,1.789,3.995,3.997,3.995s3.998-1.788,3.998-3.995
		C-51.781,17.825-53.571,16.036-55.779,16.036z"/>
	
		<circle fill="none" stroke="#FCB717" stroke-linecap="round" stroke-linejoin="round" stroke-miterlimit="10" cx="-51.208" cy="15.045" r="1.004"/>
</g>
<g>
	<g>
		<path fill="none" stroke="#FCB717" stroke-linecap="round" stroke-linejoin="round" stroke-miterlimit="10" d="M23.094,13.372
			h2.242V9.845h-2.787l0,0h-0.576c0,0-2.113-0.053-3.462,1.699c0,0-0.917,0.865-0.931,3.399h-0.002v2.645h-3.323v3.745h3.323v9.676
			h3.835v-9.676h3.297l0.46-3.745h-3.757v-2.645h-0.002C21.42,14.648,21.553,13.345,23.094,13.372z"/>
	</g>
</g>
<g>
	<path fill="none" stroke="#FCB717" stroke-linecap="round" stroke-linejoin="round" stroke-miterlimit="10" d="M-58.88,89.94
		c6.571,0,10.163-5.443,10.163-10.164c0-0.153-0.002-0.309-0.011-0.461c0.698-0.504,1.305-1.135,1.781-1.85
		c-0.639,0.284-1.329,0.476-2.051,0.562c0.737-0.443,1.304-1.143,1.572-1.977c-0.689,0.409-1.456,0.708-2.27,0.868
		c-0.653-0.695-1.578-1.129-2.607-1.129c-1.973,0-3.571,1.601-3.571,3.572c0,0.279,0.032,0.55,0.092,0.813
		c-2.968-0.15-5.603-1.571-7.363-3.731c-0.307,0.527-0.483,1.14-0.483,1.794c0,1.238,0.63,2.332,1.591,2.976
		c-0.586-0.021-1.138-0.181-1.619-0.448c0,0.017,0,0.03,0,0.046c0,1.73,1.231,3.174,2.864,3.502
		c-0.299,0.081-0.614,0.125-0.94,0.125c-0.23,0-0.453-0.024-0.671-0.065c0.456,1.421,1.774,2.453,3.336,2.481
		c-1.222,0.959-2.762,1.529-4.436,1.529c-0.288,0-0.571-0.016-0.852-0.05C-62.774,89.351-60.898,89.94-58.88,89.94"/>
</g>
<g>
	<polyline fill="none" stroke="#FCB717" stroke-linecap="round" stroke-linejoin="round" stroke-miterlimit="10" points="
		11.037,76.024 20.403,83.583 29.648,75.88 	"/>
	
		<line fill="none" stroke="#FCB717" stroke-linecap="round" stroke-linejoin="round" stroke-miterlimit="10" x1="17.262" y1="81.151" x2="10.977" y2="88.773"/>
	
		<line fill="none" stroke="#FCB717" stroke-linecap="round" stroke-linejoin="round" stroke-miterlimit="10" x1="23.547" y1="81.029" x2="29.75" y2="88.855"/>
	<path fill="none" stroke="#FCB717" stroke-linecap="round" stroke-linejoin="round" stroke-miterlimit="10" d="M30.5,86.866
		c0,1.523-1.062,2.759-2.37,2.759H12.495c-1.309,0-2.37-1.235-2.37-2.759v-9.079c0-1.523,1.062-2.759,2.37-2.759H28.13
		c1.309,0,2.37,1.235,2.37,2.759V86.866z"/>
</g>
</svg>
