<?xml version="1.0" encoding="utf-8"?>
<!-- Generator: Adobe Illustrator 15.0.0, SVG Export Plug-In . SVG Version: 6.00 Build 0)  -->
<!DOCTYPE svg PUBLIC "-//W3C//DTD SVG 1.1//EN" "http://www.w3.org/Graphics/SVG/1.1/DTD/svg11.dtd">
<svg version="1.1" id="Layer_1" xmlns="http://www.w3.org/2000/svg" xmlns:xlink="http://www.w3.org/1999/xlink" x="0px" y="0px"
	 width="40px" height="40px" viewBox="0 0 40 40" enable-background="new 0 0 40 40" xml:space="preserve">
<g>
	<circle fill="none" stroke="#FFFFFF" stroke-linecap="round" stroke-linejoin="round" cx="-143.666" cy="20.666" r="19.259"/>
</g>
<g>
	<circle fill="none" stroke="#FFFFFF" stroke-linecap="round" stroke-linejoin="round" cx="-143.666" cy="20.666" r="19.259"/>
</g>
<g>
	<circle fill="none" stroke="#FFFFFF" stroke-linecap="round" stroke-linejoin="round" cx="-67.541" cy="20.416" r="19.259"/>
</g>
<g>
	<circle fill="none" stroke="#FFFFFF" stroke-linecap="round" stroke-linejoin="round" cx="-144.166" cy="82.416" r="19.259"/>
</g>
<g>
	<circle fill="none" stroke="#FFFFFF" stroke-linecap="round" stroke-linejoin="round" cx="-67.666" cy="82.541" r="19.259"/>
</g>
<g>
	<path fill="none" stroke="#FFFFFF" stroke-linecap="round" stroke-linejoin="round" stroke-miterlimit="10" d="M-134.941,23.729
		c0,2.938-2.381,5.316-5.316,5.316h-6.624c-2.937,0-5.318-2.379-5.318-5.316v-6.625c0-2.936,2.381-5.317,5.318-5.317h6.624
		c2.936,0,5.316,2.382,5.316,5.317V23.729z"/>
	<path fill="none" stroke="#FFFFFF" stroke-linecap="round" stroke-linejoin="round" stroke-miterlimit="10" d="M-143.321,16.453
		c-2.208,0-3.997,1.789-3.997,3.996c0,2.207,1.789,3.995,3.997,3.995s3.998-1.788,3.998-3.995
		C-139.323,18.241-141.113,16.453-143.321,16.453z"/>
	
		<circle fill="none" stroke="#FFFFFF" stroke-linecap="round" stroke-linejoin="round" stroke-miterlimit="10" cx="-138.75" cy="15.462" r="1.004"/>
</g>
<g>
	<g>
		<path fill="none" stroke="#FFFFFF" stroke-linecap="round" stroke-linejoin="round" stroke-miterlimit="10" d="M-64.448,13.788
			h2.242v-3.526h-2.787l0,0h-0.576c0,0-2.113-0.053-3.462,1.699c0,0-0.917,0.865-0.931,3.399h-0.002v2.645h-3.323v3.745h3.323v9.676
			h3.835V21.75h3.297l0.46-3.745h-3.757V15.36h-0.002C-66.122,15.065-65.989,13.762-64.448,13.788z"/>
	</g>
</g>
<g>
	<path fill="none" stroke="#FFFFFF" stroke-linecap="round" stroke-linejoin="round" stroke-miterlimit="10" d="M-146.422,90.357
		c6.571,0,10.163-5.443,10.163-10.164c0-0.153-0.002-0.309-0.011-0.461c0.698-0.504,1.305-1.135,1.781-1.85
		c-0.639,0.284-1.329,0.476-2.051,0.562c0.737-0.443,1.304-1.143,1.572-1.977c-0.689,0.409-1.456,0.708-2.27,0.868
		c-0.653-0.695-1.578-1.129-2.607-1.129c-1.973,0-3.571,1.601-3.571,3.572c0,0.279,0.032,0.55,0.092,0.813
		c-2.968-0.15-5.603-1.571-7.363-3.731c-0.307,0.527-0.483,1.14-0.483,1.794c0,1.238,0.63,2.332,1.591,2.976
		c-0.586-0.021-1.138-0.181-1.619-0.448c0,0.017,0,0.03,0,0.046c0,1.73,1.231,3.174,2.864,3.502
		c-0.299,0.081-0.614,0.125-0.94,0.125c-0.23,0-0.453-0.024-0.671-0.065c0.456,1.421,1.774,2.453,3.336,2.481
		c-1.222,0.959-2.762,1.529-4.436,1.529c-0.288,0-0.571-0.016-0.852-0.05C-150.316,89.767-148.44,90.357-146.422,90.357"/>
</g>
<g>
	<polyline fill="none" stroke="#FFFFFF" stroke-linecap="round" stroke-linejoin="round" stroke-miterlimit="10" points="
		-76.505,76.441 -67.139,84 -57.894,76.296 	"/>
	
		<line fill="none" stroke="#FFFFFF" stroke-linecap="round" stroke-linejoin="round" stroke-miterlimit="10" x1="-70.28" y1="81.568" x2="-76.565" y2="89.19"/>
	
		<line fill="none" stroke="#FFFFFF" stroke-linecap="round" stroke-linejoin="round" stroke-miterlimit="10" x1="-63.995" y1="81.446" x2="-57.792" y2="89.272"/>
	<path fill="none" stroke="#FFFFFF" stroke-linecap="round" stroke-linejoin="round" stroke-miterlimit="10" d="M-57.042,87.283
		c0,1.523-1.062,2.759-2.37,2.759h-15.635c-1.309,0-2.37-1.235-2.37-2.759v-9.079c0-1.523,1.062-2.759,2.37-2.759h15.635
		c1.309,0,2.37,1.235,2.37,2.759V87.283z"/>
</g>
<g>
	<path fill="none" stroke="#FCB717" stroke-width="1.2542" stroke-linecap="round" stroke-linejoin="round" d="M-140.624,178.863
		c13.341,0,24.153-10.813,24.153-24.153c0-13.341-10.812-24.155-24.153-24.155c-13.343,0-24.155,10.814-24.155,24.155
		C-164.779,168.049-153.967,178.863-140.624,178.863z"/>
</g>
<g>
	
		<line fill="none" stroke="#FCB717" stroke-width="1.3106" stroke-linecap="round" stroke-linejoin="round" x1="-154.5" y1="155.144" x2="-126.75" y2="155.144"/>
	
		<line fill="none" stroke="#FCB717" stroke-width="1.3106" stroke-linecap="round" stroke-linejoin="round" x1="-154.5" y1="144.917" x2="-126.75" y2="144.917"/>
	
		<line fill="none" stroke="#FCB717" stroke-width="1.3106" stroke-linecap="round" stroke-linejoin="round" x1="-154.5" y1="164.5" x2="-126.75" y2="164.5"/>
</g>
<g>
	<path fill="none" stroke="#FCB717" stroke-width="1.2542" stroke-linecap="round" stroke-linejoin="round" d="M-63.166,178.654
		c13.341,0,24.153-10.813,24.153-24.153c0-13.341-10.812-24.155-24.153-24.155c-13.343,0-24.155,10.814-24.155,24.155
		C-87.321,167.84-76.509,178.654-63.166,178.654z"/>
</g>
<line fill="none" stroke="#FCB717" stroke-width="1.3106" stroke-linecap="round" stroke-linejoin="round" x1="-72.979" y1="164.747" x2="-53.355" y2="145.124"/>
<line fill="none" stroke="#FCB717" stroke-width="1.3106" stroke-linecap="round" stroke-linejoin="round" x1="-72.979" y1="145.124" x2="-53.355" y2="164.747"/>
<g id="XMLID_1_">
	
		<path id="XMLID_7_" fill="none" stroke="#FFFFFF" stroke-width="0.8119" stroke-linecap="round" stroke-linejoin="round" stroke-miterlimit="10" d="
		M15.968,28.161V16.618H12.4v11.542H15.968z M15.968,12.526c-0.021-1.031-0.709-1.818-1.827-1.818c-1.119,0-1.85,0.787-1.85,1.818
		c0,1.012,0.709,1.82,1.807,1.82h0.02C15.259,14.347,15.968,13.538,15.968,12.526z M21.788,28.161v-6.574
		c0-0.354,0.024-0.705,0.131-0.955c0.282-0.705,0.925-1.434,2.008-1.434c1.416,0,2.306,0.805,2.306,2.389v6.574h3.591v-6.751
		c0-3.617-1.93-5.299-4.508-5.299c-2.111,0-3.036,1.178-3.553,1.982l0.024-1.543h-3.582c0.051,1.105,0,11.611,0,11.611H21.788z"/>
</g>
<g>
	<circle fill="none" stroke="#FFFFFF" stroke-linecap="round" stroke-linejoin="round" cx="20.001" cy="19.999" r="19.259"/>
</g>
</svg>
