<?xml version="1.0" encoding="utf-8"?>
<!-- Generator: Adobe Illustrator 15.0.0, SVG Export Plug-In . SVG Version: 6.00 Build 0)  -->
<!DOCTYPE svg PUBLIC "-//W3C//DTD SVG 1.1//EN" "http://www.w3.org/Graphics/SVG/1.1/DTD/svg11.dtd">
<svg version="1.1" id="Layer_1" xmlns="http://www.w3.org/2000/svg" xmlns:xlink="http://www.w3.org/1999/xlink" x="0px" y="0px"
	 width="50px" height="50px" viewBox="0 0 50 50" enable-background="new 0 0 50 50" xml:space="preserve">
<g>
	<defs>
		<rect id="SVGID_5_" x="1.958" y="-129.042" width="40" height="40"/>
	</defs>
	<clipPath id="SVGID_1_">
		<use xlink:href="#SVGID_5_"  overflow="visible"/>
	</clipPath>
	
		<circle clip-path="url(#SVGID_1_)" fill="none" stroke="#FCB717" stroke-linecap="round" stroke-linejoin="round" cx="21.959" cy="-109.042" r="19.259"/>
</g>
<g>
	<defs>
		<rect id="SVGID_7_" x="1.958" y="-129.042" width="40" height="40"/>
	</defs>
	<clipPath id="SVGID_2_">
		<use xlink:href="#SVGID_7_"  overflow="visible"/>
	</clipPath>
	
		<circle clip-path="url(#SVGID_2_)" fill="none" stroke="#FCB717" stroke-linecap="round" stroke-linejoin="round" cx="21.959" cy="-109.042" r="19.259"/>
</g>
<g>
	<defs>
		<rect id="SVGID_9_" x="78.083" y="-129.292" width="40" height="40"/>
	</defs>
	<clipPath id="SVGID_3_">
		<use xlink:href="#SVGID_9_"  overflow="visible"/>
	</clipPath>
	
		<circle clip-path="url(#SVGID_3_)" fill="none" stroke="#FCB717" stroke-linecap="round" stroke-linejoin="round" cx="98.084" cy="-109.292" r="19.259"/>
</g>
<g>
	<defs>
		<rect id="SVGID_11_" x="1.458" y="-67.292" width="40" height="40"/>
	</defs>
	<clipPath id="SVGID_4_">
		<use xlink:href="#SVGID_11_"  overflow="visible"/>
	</clipPath>
	
		<circle clip-path="url(#SVGID_4_)" fill="none" stroke="#FCB717" stroke-linecap="round" stroke-linejoin="round" cx="21.459" cy="-47.292" r="19.259"/>
</g>
<g>
	<circle fill="none" stroke="#FCB717" stroke-linecap="round" stroke-linejoin="round" cx="97.959" cy="-47.167" r="19.259"/>
</g>
<g>
	<path fill="none" stroke="#FCB717" stroke-linecap="round" stroke-linejoin="round" stroke-miterlimit="10" d="M30.684-105.979
		c0,2.938-2.381,5.316-5.316,5.316h-6.624c-2.937,0-5.318-2.379-5.318-5.316v-6.625c0-2.936,2.381-5.317,5.318-5.317h6.624
		c2.936,0,5.316,2.382,5.316,5.317V-105.979z"/>
	<path fill="none" stroke="#FCB717" stroke-linecap="round" stroke-linejoin="round" stroke-miterlimit="10" d="M22.304-113.256
		c-2.208,0-3.997,1.789-3.997,3.996c0,2.207,1.789,3.995,3.997,3.995s3.998-1.788,3.998-3.995
		C26.302-111.467,24.512-113.256,22.304-113.256z"/>
	
		<circle fill="none" stroke="#FCB717" stroke-linecap="round" stroke-linejoin="round" stroke-miterlimit="10" cx="26.875" cy="-114.247" r="1.004"/>
</g>
<g>
	<g>
		<path fill="none" stroke="#FCB717" stroke-linecap="round" stroke-linejoin="round" stroke-miterlimit="10" d="M101.177-115.92
			h2.242v-3.526h-2.787l0,0h-0.576c0,0-2.113-0.053-3.462,1.699c0,0-0.917,0.865-0.931,3.399h-0.002v2.645h-3.323v3.745h3.323v9.676
			h3.835v-9.676h3.297l0.46-3.745h-3.757v-2.645h-0.002C99.503-114.644,99.636-115.947,101.177-115.92z"/>
	</g>
</g>
<g>
	<path fill="none" stroke="#FCB717" stroke-linecap="round" stroke-linejoin="round" stroke-miterlimit="10" d="M19.203-39.352
		c6.571,0,10.163-5.443,10.163-10.164c0-0.153-0.002-0.309-0.011-0.461c0.698-0.504,1.305-1.135,1.781-1.85
		c-0.639,0.284-1.329,0.476-2.051,0.562c0.737-0.443,1.304-1.143,1.572-1.977c-0.689,0.409-1.456,0.708-2.27,0.868
		c-0.653-0.695-1.578-1.129-2.607-1.129c-1.973,0-3.571,1.601-3.571,3.572c0,0.279,0.032,0.55,0.092,0.813
		c-2.968-0.15-5.603-1.571-7.363-3.731c-0.307,0.527-0.483,1.14-0.483,1.794c0,1.238,0.63,2.332,1.591,2.976
		c-0.586-0.021-1.138-0.181-1.619-0.448c0,0.017,0,0.03,0,0.046c0,1.73,1.231,3.174,2.864,3.502
		c-0.299,0.081-0.614,0.125-0.94,0.125c-0.23,0-0.453-0.024-0.671-0.065c0.456,1.421,1.774,2.453,3.336,2.481
		c-1.222,0.959-2.762,1.529-4.436,1.529c-0.288,0-0.571-0.016-0.852-0.05C15.309-39.941,17.185-39.352,19.203-39.352"/>
</g>
<g>
	<polyline fill="none" stroke="#FCB717" stroke-linecap="round" stroke-linejoin="round" stroke-miterlimit="10" points="
		89.12,-53.268 98.486,-45.709 107.731,-53.412 	"/>
	
		<line fill="none" stroke="#FCB717" stroke-linecap="round" stroke-linejoin="round" stroke-miterlimit="10" x1="95.345" y1="-48.141" x2="89.06" y2="-40.519"/>
	
		<line fill="none" stroke="#FCB717" stroke-linecap="round" stroke-linejoin="round" stroke-miterlimit="10" x1="101.63" y1="-48.263" x2="107.833" y2="-40.437"/>
	<path fill="none" stroke="#FCB717" stroke-linecap="round" stroke-linejoin="round" stroke-miterlimit="10" d="M108.583-42.426
		c0,1.523-1.062,2.759-2.37,2.759H90.578c-1.309,0-2.37-1.235-2.37-2.759v-9.079c0-1.523,1.062-2.759,2.37-2.759h15.635
		c1.309,0,2.37,1.235,2.37,2.759V-42.426z"/>
</g>
<g>
	<path fill="none" stroke="#FCB717" stroke-width="1.2542" stroke-linecap="round" stroke-linejoin="round" d="M25.001,49.154
		c13.341,0,24.153-10.813,24.153-24.153c0-13.341-10.812-24.155-24.153-24.155c-13.343,0-24.155,10.814-24.155,24.155
		C0.846,38.341,11.658,49.154,25.001,49.154z"/>
</g>
<g>
	
		<line fill="none" stroke="#FCB717" stroke-width="1.3106" stroke-linecap="round" stroke-linejoin="round" x1="11.125" y1="25.436" x2="38.875" y2="25.436"/>
	
		<line fill="none" stroke="#FCB717" stroke-width="1.3106" stroke-linecap="round" stroke-linejoin="round" x1="11.125" y1="15.208" x2="38.875" y2="15.208"/>
	
		<line fill="none" stroke="#FCB717" stroke-width="1.3106" stroke-linecap="round" stroke-linejoin="round" x1="11.125" y1="34.792" x2="38.875" y2="34.792"/>
</g>
<g>
	<path fill="none" stroke="#FCB717" stroke-width="1.2542" stroke-linecap="round" stroke-linejoin="round" d="M102.459,48.945
		c13.341,0,24.153-10.813,24.153-24.153c0-13.341-10.812-24.155-24.153-24.155c-13.343,0-24.155,10.814-24.155,24.155
		C78.304,38.132,89.116,48.945,102.459,48.945z"/>
</g>
<line fill="none" stroke="#FCB717" stroke-width="1.3106" stroke-linecap="round" stroke-linejoin="round" x1="92.646" y1="35.038" x2="112.27" y2="15.415"/>
<line fill="none" stroke="#FCB717" stroke-width="1.3106" stroke-linecap="round" stroke-linejoin="round" x1="92.646" y1="15.415" x2="112.27" y2="35.038"/>
</svg>
