<?xml version="1.0" encoding="utf-8"?>
<!-- Generator: Adobe Illustrator 15.0.0, SVG Export Plug-In . SVG Version: 6.00 Build 0)  -->
<!DOCTYPE svg PUBLIC "-//W3C//DTD SVG 1.1//EN" "http://www.w3.org/Graphics/SVG/1.1/DTD/svg11.dtd">
<svg version="1.1" id="Layer_1" xmlns="http://www.w3.org/2000/svg" xmlns:xlink="http://www.w3.org/1999/xlink" x="0px" y="0px"
	 width="50px" height="50px" viewBox="0 0 50 50" enable-background="new 0 0 50 50" xml:space="preserve">
<g>
	<defs>
		<rect id="SVGID_5_" x="-75.5" y="-128.833" width="40" height="40"/>
	</defs>
	<clipPath id="SVGID_1_">
		<use xlink:href="#SVGID_5_"  overflow="visible"/>
	</clipPath>
	
		<circle clip-path="url(#SVGID_1_)" fill="none" stroke="#FCB717" stroke-linecap="round" stroke-linejoin="round" cx="-55.499" cy="-108.833" r="19.259"/>
</g>
<g>
	<defs>
		<rect id="SVGID_7_" x="-75.5" y="-128.833" width="40" height="40"/>
	</defs>
	<clipPath id="SVGID_2_">
		<use xlink:href="#SVGID_7_"  overflow="visible"/>
	</clipPath>
	
		<circle clip-path="url(#SVGID_2_)" fill="none" stroke="#FCB717" stroke-linecap="round" stroke-linejoin="round" cx="-55.499" cy="-108.833" r="19.259"/>
</g>
<g>
	<defs>
		<rect id="SVGID_9_" x="0.625" y="-129.083" width="40" height="40"/>
	</defs>
	<clipPath id="SVGID_3_">
		<use xlink:href="#SVGID_9_"  overflow="visible"/>
	</clipPath>
	
		<circle clip-path="url(#SVGID_3_)" fill="none" stroke="#FCB717" stroke-linecap="round" stroke-linejoin="round" cx="20.626" cy="-109.083" r="19.259"/>
</g>
<g>
	<defs>
		<rect id="SVGID_11_" x="-76" y="-67.083" width="40" height="40"/>
	</defs>
	<clipPath id="SVGID_4_">
		<use xlink:href="#SVGID_11_"  overflow="visible"/>
	</clipPath>
	
		<circle clip-path="url(#SVGID_4_)" fill="none" stroke="#FCB717" stroke-linecap="round" stroke-linejoin="round" cx="-55.999" cy="-47.083" r="19.259"/>
</g>
<g>
	<circle fill="none" stroke="#FCB717" stroke-linecap="round" stroke-linejoin="round" cx="20.501" cy="-46.958" r="19.259"/>
</g>
<g>
	<path fill="none" stroke="#FCB717" stroke-linecap="round" stroke-linejoin="round" stroke-miterlimit="10" d="M-46.774-105.771
		c0,2.938-2.381,5.316-5.316,5.316h-6.624c-2.937,0-5.318-2.379-5.318-5.316v-6.625c0-2.936,2.381-5.317,5.318-5.317h6.624
		c2.936,0,5.316,2.382,5.316,5.317V-105.771z"/>
	<path fill="none" stroke="#FCB717" stroke-linecap="round" stroke-linejoin="round" stroke-miterlimit="10" d="M-55.154-113.047
		c-2.208,0-3.997,1.789-3.997,3.996c0,2.207,1.789,3.995,3.997,3.995s3.998-1.788,3.998-3.995
		C-51.156-111.258-52.946-113.047-55.154-113.047z"/>
	
		<circle fill="none" stroke="#FCB717" stroke-linecap="round" stroke-linejoin="round" stroke-miterlimit="10" cx="-50.583" cy="-114.038" r="1.004"/>
</g>
<g>
	<g>
		<path fill="none" stroke="#FCB717" stroke-linecap="round" stroke-linejoin="round" stroke-miterlimit="10" d="M23.719-115.711
			h2.242v-3.526h-2.787l0,0h-0.576c0,0-2.113-0.053-3.462,1.699c0,0-0.917,0.865-0.931,3.399h-0.002v2.645H14.88v3.745h3.323v9.676
			h3.835v-9.676h3.297l0.46-3.745h-3.757v-2.645h-0.002C22.045-114.435,22.178-115.738,23.719-115.711z"/>
	</g>
</g>
<g>
	<path fill="none" stroke="#FCB717" stroke-linecap="round" stroke-linejoin="round" stroke-miterlimit="10" d="M-58.255-39.143
		c6.571,0,10.163-5.443,10.163-10.164c0-0.153-0.002-0.309-0.011-0.461c0.698-0.504,1.305-1.135,1.781-1.85
		c-0.639,0.284-1.329,0.476-2.051,0.562c0.737-0.443,1.304-1.143,1.572-1.977c-0.689,0.409-1.456,0.708-2.27,0.868
		c-0.653-0.695-1.578-1.129-2.607-1.129c-1.973,0-3.571,1.601-3.571,3.572c0,0.279,0.032,0.55,0.092,0.813
		c-2.968-0.15-5.603-1.571-7.363-3.731c-0.307,0.527-0.483,1.14-0.483,1.794c0,1.238,0.63,2.332,1.591,2.976
		c-0.586-0.021-1.138-0.181-1.619-0.448c0,0.017,0,0.03,0,0.046c0,1.73,1.231,3.174,2.864,3.502
		c-0.299,0.081-0.614,0.125-0.94,0.125c-0.23,0-0.453-0.024-0.671-0.065c0.456,1.421,1.774,2.453,3.336,2.481
		c-1.222,0.959-2.762,1.529-4.436,1.529c-0.288,0-0.571-0.016-0.852-0.05C-62.149-39.732-60.273-39.143-58.255-39.143"/>
</g>
<g>
	<polyline fill="none" stroke="#FCB717" stroke-linecap="round" stroke-linejoin="round" stroke-miterlimit="10" points="
		11.662,-53.059 21.028,-45.5 30.273,-53.203 	"/>
	
		<line fill="none" stroke="#FCB717" stroke-linecap="round" stroke-linejoin="round" stroke-miterlimit="10" x1="17.887" y1="-47.932" x2="11.602" y2="-40.31"/>
	
		<line fill="none" stroke="#FCB717" stroke-linecap="round" stroke-linejoin="round" stroke-miterlimit="10" x1="24.172" y1="-48.054" x2="30.375" y2="-40.228"/>
	<path fill="none" stroke="#FCB717" stroke-linecap="round" stroke-linejoin="round" stroke-miterlimit="10" d="M31.125-42.217
		c0,1.523-1.062,2.759-2.37,2.759H13.12c-1.309,0-2.37-1.235-2.37-2.759v-9.079c0-1.523,1.062-2.759,2.37-2.759h15.635
		c1.309,0,2.37,1.235,2.37,2.759V-42.217z"/>
</g>
<g>
	<path fill="none" stroke="#FCB717" stroke-width="1.2542" stroke-linecap="round" stroke-linejoin="round" d="M-52.457,49.363
		c13.341,0,24.153-10.813,24.153-24.153c0-13.341-10.812-24.155-24.153-24.155c-13.343,0-24.155,10.814-24.155,24.155
		C-76.612,38.55-65.8,49.363-52.457,49.363z"/>
</g>
<g>
	
		<line fill="none" stroke="#FCB717" stroke-width="1.3106" stroke-linecap="round" stroke-linejoin="round" x1="-66.333" y1="25.645" x2="-38.583" y2="25.645"/>
	
		<line fill="none" stroke="#FCB717" stroke-width="1.3106" stroke-linecap="round" stroke-linejoin="round" x1="-66.333" y1="15.417" x2="-38.583" y2="15.417"/>
	
		<line fill="none" stroke="#FCB717" stroke-width="1.3106" stroke-linecap="round" stroke-linejoin="round" x1="-66.333" y1="35.001" x2="-38.583" y2="35.001"/>
</g>
<g>
	<path fill="none" stroke="#626468" stroke-width="1.2542" stroke-linecap="round" stroke-linejoin="round" d="M25.001,49.154
		c13.341,0,24.153-10.813,24.153-24.153c0-13.341-10.812-24.155-24.153-24.155c-13.343,0-24.155,10.814-24.155,24.155
		C0.846,38.341,11.658,49.154,25.001,49.154z"/>
</g>
<line fill="none" stroke="#626468" stroke-width="1.3106" stroke-linecap="round" stroke-linejoin="round" x1="15.188" y1="35.247" x2="34.812" y2="15.624"/>
<line fill="none" stroke="#626468" stroke-width="1.3106" stroke-linecap="round" stroke-linejoin="round" x1="15.188" y1="15.624" x2="34.812" y2="35.247"/>
</svg>
