<?xml version="1.0" encoding="utf-8"?>
<!-- Generator: Adobe Illustrator 15.0.0, SVG Export Plug-In  -->
<!DOCTYPE svg PUBLIC "-//W3C//DTD SVG 1.1//EN" "http://www.w3.org/Graphics/SVG/1.1/DTD/svg11.dtd" [
	<!ENTITY ns_flows "http://ns.adobe.com/Flows/1.0/">
]>
<svg version="1.1"
	 xmlns="http://www.w3.org/2000/svg" xmlns:xlink="http://www.w3.org/1999/xlink" xmlns:a="http://ns.adobe.com/AdobeSVGViewerExtensions/3.0/"
	 x="0px" y="0px" width="40px" height="40px" viewBox="0 0 40 40" overflow="visible" enable-background="new 0 0 40 40"
	 xml:space="preserve">
<defs>
</defs>
<g>
	<defs>
		<rect id="SVGID_1_" width="40" height="40"/>
	</defs>
	<clipPath id="SVGID_2_">
		<use xlink:href="#SVGID_1_"  overflow="visible"/>
	</clipPath>
	
		<circle clip-path="url(#SVGID_2_)" fill="none" stroke="#FCB717" stroke-width="0.8218" stroke-linecap="round" stroke-linejoin="round" cx="20" cy="20" r="19.259"/>
</g>
<path fill="none" stroke="#FCB717" stroke-width="0.7939" stroke-linecap="round" stroke-linejoin="round" stroke-miterlimit="10" d="
	M17.745,27.94c6.571,0,10.163-5.443,10.163-10.164c0-0.153-0.002-0.309-0.011-0.461c0.698-0.504,1.305-1.135,1.781-1.85
	c-0.639,0.284-1.329,0.476-2.051,0.562c0.737-0.443,1.304-1.143,1.572-1.977c-0.689,0.409-1.456,0.708-2.27,0.868
	c-0.653-0.695-1.578-1.129-2.607-1.129c-1.973,0-3.571,1.601-3.571,3.572c0,0.279,0.032,0.55,0.092,0.813
	c-2.968-0.15-5.603-1.571-7.363-3.731c-0.307,0.527-0.483,1.14-0.483,1.794c0,1.238,0.63,2.332,1.591,2.976
	c-0.586-0.021-1.138-0.181-1.619-0.448c0,0.017,0,0.03,0,0.046c0,1.73,1.231,3.174,2.864,3.502c-0.299,0.081-0.614,0.125-0.94,0.125
	c-0.23,0-0.453-0.024-0.671-0.065c0.456,1.421,1.774,2.453,3.336,2.481c-1.222,0.959-2.762,1.529-4.436,1.529
	c-0.288,0-0.571-0.016-0.852-0.05C13.851,27.351,15.727,27.94,17.745,27.94"/>
</svg>
